<svg fill="none" xmlns="http://www.w3.org/2000/svg" viewBox="0 0 63 27">
  <g clip-path="url(#4fTHjskNkfyQa)" fill="#000">
    <path d="M13.248 21H.565V.98H5.1v16.464h8.149V21z"/>
    <path fill-rule="evenodd" clip-rule="evenodd" d="M29.287 13.748c0 4.62-3.332 7.56-7.728 7.56-4.368 0-7.7-2.912-7.7-7.476v-.224c0-4.592 3.332-7.588 7.728-7.588s7.7 2.94 7.7 7.504v.224zm-11.284 0c0 2.8 1.288 4.48 3.584 4.48 2.268 0 3.584-1.68 3.584-4.452v-.196c0-2.8-1.316-4.48-3.584-4.48-2.24 0-3.584 1.624-3.584 4.424v.224zm19.662 12.656c4.816 0 7.7-2.212 7.728-6.552V6.356H41.36V8.54c-.84-1.484-2.268-2.52-4.648-2.52-3.64 0-6.44 2.94-6.44 7.14v.196c0 4.34 2.828 7 6.384 7 2.156 0 3.892-1.288 4.704-2.716v2.212c0 2.296-1.232 3.584-3.696 3.584-2.072 0-2.996-.84-3.248-2.128h-4.032c.392 3.024 2.548 5.096 7.28 5.096zm.196-9.1c-2.016 0-3.444-1.512-3.444-3.948v-.224c0-2.408 1.26-4.032 3.528-4.032 2.212 0 3.528 1.512 3.528 4.004v.196c0 2.492-1.484 4.004-3.612 4.004zm24.801-3.556c0 4.62-3.332 7.56-7.728 7.56-4.368 0-7.7-2.912-7.7-7.476v-.224c0-4.592 3.332-7.588 7.728-7.588s7.7 2.94 7.7 7.504v.224zm-11.284 0c0 2.8 1.288 4.48 3.584 4.48 2.268 0 3.584-1.68 3.584-4.452v-.196c0-2.8-1.316-4.48-3.584-4.48-2.24 0-3.584 1.624-3.584 4.424v.224z"/>
  </g>
  <defs>
    <clipPath id="4fTHjskNkfyQa">
      <path fill="#fff" d="M0 0h63v27H0z"/>
    </clipPath>
  </defs>
</svg>
